<?xml version="1.0" encoding="UTF-8"?>
<svg id="Layer_1" xmlns="http://www.w3.org/2000/svg" viewBox="0 0 1080 1080">
  <defs>
    <style>
      .cls-1 {
        fill: #2da0c2;
      }

      .cls-2 {
        opacity: .13;
      }

      .cls-3 {
        font-family: TAN-PEARL-Regular, 'TAN - PEARL';
        font-size: 22px;
      }

      .cls-3, .cls-4 {
        fill: #1a83a8;
      }

      .cls-5 {
        stroke-width: 6px;
      }

      .cls-5, .cls-6 {
        fill: none;
        stroke: #339eca;
        stroke-miterlimit: 10;
      }

      .cls-6 {
        stroke-width: 9px;
      }

      .cls-7 {
        fill: #339eca;
      }

      .cls-8 {
        letter-spacing: -.06em;
      }

      .cls-9 {
        letter-spacing: -.1em;
      }

      .cls-10 {
        fill: #feffff;
      }
    </style>
  </defs>
  <rect class="cls-10" x="-13.64" y="-17.45" width="1172.66" height="1172.66"/>
  <g id="icomoon-ignore" class="cls-2">
    <g>
      <path class="cls-1" d="M1106.77,315.19c0,79.55-37.39,150.43-95.61,195.87-2.29,1.81-4.61,3.59-6.98,5.36-.04-.04-.04,0-.04,0-2.92-3.35-3.83-8.36-5.4-12.7-14.36-39.48-33.49-76.32-58.29-110.08,15.42-19.8,24.61-44.96,24.61-72.38,0-15.42-2.92-30.09-8.2-43.54-.28-.75-.59-1.5-.91-2.25,11.79-9.31,19.33-23.7,19.33-39.91,0-28.16-22.84-50.96-50.96-50.96-18.46,0-34.63,9.78-43.54,24.49-8.76-2.29-17.95-3.51-27.41-3.51-11.08,0-21.81,1.66-31.91,4.81-20.83,6.39-39.13,18.97-52.93,35.66-.59.63-1.18,1.22-1.77,1.85-43.39-16.88-86.5-34.79-133.71-37.71,0-.08.04-.12.08-.2,1.74-3.71,3.59-7.38,5.56-11,41.61-78.69,124.36-132.29,219.61-132.29,137.22,0,248.48,111.27,248.48,248.48Z"/>
      <g>
        <path class="cls-7" d="M1033.92,667.02c-2.33,1.18-4.69,2.37-7.06,3.47-.51.28-1.06.51-1.58.75-50.33,23.67-106.53,37-165.81,37.15-4.34,3.08-5.99,8.32-4.69,17.35.91,6.15.47,10.69-1.03,13.96-1.03,2.29-2.6,3.94-4.65,5.09-4.22,2.45-10.37,2.8-18.06,2.05-199.58-19.33-349.69-148.38-394.06-340.18-5.48-23.78-6.82-48.47-10.45-72.69-2.56-16.8,1.93-26.5,21.1-23.15,8.68,1.5,14.24.51,17.55-3.35.67-35.3,6-69.46,15.42-101.88l135.44,54.07c-4.06,17.87-6.23,36.44-6.23,55.53,0,137.26,111.27,248.52,248.48,248.52,34.47,0,67.29-7.02,97.11-19.76l78.53,123.06Z"/>
        <g>
          <path class="cls-4" d="M1352.43,366.78c-37.77,205.84-156.12,343.95-353.25,414.28-37.55,13.39-76.48,20.47-116.32,23.14-37.43,2.5-37.4,3.02-36.44-34.09q.84-32.25,33.36-34.45c210.98-14.34,387.04-185.11,406.82-395.88,1.68-17.67,6.42-22.44,23.96-21.67,48.28,2.04,50.5,1.62,41.86,48.67Z"/>
          <path class="cls-4" d="M402.47,311.73q-41.41-.8-36.43-37.47c31.7-233.62,210.87-415.08,443.61-449.21,5.49-.8,11.04-1.23,16.58-1.64,48.08-3.52,47.25-3.51,47.1,44.22-.06,17.53-5.1,22.32-22.81,23.18-215.32,10.55-394.82,180.42-414.42,394.21-2.89,31.52-18.23,28.51-33.61,26.71Z"/>
          <path class="cls-7" d="M1150.05,137.96c-31.65-.21-61.11-12.62-82.98-34.95-21.53-21.98-33.14-51.05-32.7-81.85.92-65.08,52.21-116.05,116.77-116.05h.6c65.04.27,115.85,51.92,115.69,117.58-.19,64.63-51.36,115.27-116.5,115.27h-.88Z"/>
          <path class="cls-4" d="M1251.48,315.19c0,3.98-.08,7.97-.2,11.91-2.8,94.03-38.57,179.74-96.24,246-19.56,22.52-41.65,42.75-65.83,60.31-17.43,12.66-35.89,23.94-55.3,33.6l-78.53-123.06c14.59-6.15,28.48-13.73,41.49-22.48,2.45-1.66,4.85-3.31,7.26-5.05,0,0,0-.04.04,0,2.37-1.77,4.69-3.55,6.98-5.36,58.22-45.44,95.61-116.31,95.61-195.87,0-137.22-111.27-248.48-248.48-248.48-95.25,0-178,53.6-219.61,132.29-1.97,3.63-3.83,7.3-5.56,11-.04.08-.08.12-.08.2-7.3,15.66-13.06,32.22-17,49.46l-135.44-54.07c6.03-20.94,13.8-41.18,23.11-60.5,63.22-131.54,197.45-222.45,353.04-223.04h1.54c56.13,0,109.49,11.71,157.81,32.97-9.94,20-15.46,42.56-15.46,66.42,0,82.95,67.25,150.23,150.27,150.23,24.06,0,46.78-5.68,66.93-15.74,21.65,48.71,33.64,102.59,33.64,159.27Z"/>
        </g>
      </g>
      <path class="cls-4" d="M965.06,321.27c0,27.41-9.19,52.58-24.61,72.38-20.43,26.43-51.87,43.31-87.09,43.31-61.65,0-111.66-51.79-111.66-115.68,0-28.71,10.1-54.98,26.82-75.22,16.05-16.25,33.41-28.91,52.93-35.66,10.1-3.16,20.83-4.81,31.91-4.81,9.47,0,18.66,1.22,27.41,3.51-4.69,7.69-7.42,16.76-7.42,26.47,0,28.16,22.8,50.96,50.96,50.96,11.95,0,22.96-4.14,31.63-11.04.32.75.63,1.5.91,2.25,5.29,13.45,8.2,28.12,8.2,43.54Z"/>
    </g>
  </g>
  <g>
    <g>
      <circle class="cls-5" cx="43.28" cy="87.85" r="7.91"/>
      <line class="cls-5" x1="-69.38" y1="-61.42" x2="38.27" y2="81.22"/>
      <circle class="cls-5" cx="39.69" cy="56.82" r="7.91"/>
      <line class="cls-5" x1="-72.97" y1="-92.45" x2="34.68" y2="50.19"/>
      <circle class="cls-5" cx="70.53" cy="71.41" r="7.91"/>
      <line class="cls-5" x1="-42.13" y1="-77.86" x2="65.52" y2="64.78"/>
      <circle class="cls-5" cx="93.21" cy="75.19" r="7.91"/>
      <line class="cls-5" x1="-19.45" y1="-74.08" x2="88.21" y2="68.56"/>
      <circle class="cls-5" cx="96.83" cy="49.07" r="7.91"/>
      <line class="cls-5" x1="1.42" y1="-77.34" x2="91.82" y2="42.44"/>
      <g>
        <line class="cls-5" x1="-135.23" y1="-96.13" x2="24.06" y2="114.92"/>
        <circle class="cls-5" cx="27.38" cy="119.32" r="7.91"/>
      </g>
      <g>
        <line class="cls-5" x1="-80.03" y1="-49.26" x2="46.68" y2="118.63"/>
        <circle class="cls-5" cx="50" cy="123.03" r="7.91"/>
      </g>
      <g>
        <line class="cls-5" x1="-127.42" y1="-59.5" x2="31.87" y2="151.55"/>
        <circle class="cls-5" cx="35.19" cy="155.95" r="7.91"/>
      </g>
      <g>
        <line class="cls-5" x1="-160.45" y1="-76.22" x2="-1.16" y2="134.83"/>
        <circle class="cls-5" cx="2.16" cy="139.23" r="7.91"/>
      </g>
    </g>
    <g>
      <circle class="cls-5" cx="44.08" cy="87.25" r="7.91"/>
      <line class="cls-5" x1="-68.58" y1="-62.02" x2="39.07" y2="80.61"/>
      <circle class="cls-5" cx="40.49" cy="56.22" r="7.91"/>
      <line class="cls-5" x1="-72.17" y1="-93.05" x2="35.48" y2="49.59"/>
      <circle class="cls-5" cx="71.33" cy="70.81" r="7.91"/>
      <line class="cls-5" x1="-41.33" y1="-78.46" x2="66.32" y2="64.18"/>
      <circle class="cls-5" cx="94.01" cy="74.59" r="7.91"/>
      <line class="cls-5" x1="-18.65" y1="-74.68" x2="89" y2="67.96"/>
      <circle class="cls-5" cx="97.63" cy="48.47" r="7.91"/>
      <line class="cls-5" x1="2.22" y1="-77.94" x2="92.62" y2="41.84"/>
      <g>
        <line class="cls-5" x1="-134.43" y1="-96.73" x2="24.85" y2="114.32"/>
        <circle class="cls-5" cx="28.18" cy="118.72" r="7.91"/>
      </g>
      <g>
        <line class="cls-5" x1="-79.23" y1="-49.86" x2="47.48" y2="118.03"/>
        <circle class="cls-5" cx="50.8" cy="122.43" r="7.91"/>
      </g>
      <g>
        <line class="cls-5" x1="-126.62" y1="-60.1" x2="32.67" y2="150.94"/>
        <circle class="cls-5" cx="35.99" cy="155.34" r="7.91"/>
      </g>
      <g>
        <line class="cls-5" x1="-159.65" y1="-76.82" x2="-.37" y2="134.23"/>
        <circle class="cls-5" cx="2.96" cy="138.63" r="7.91"/>
      </g>
    </g>
    <g>
      <circle class="cls-5" cx="143.02" cy="80.68" r="7.91"/>
      <g>
        <line class="cls-5" x1="30.36" y1="-68.59" x2="138.01" y2="74.05"/>
        <g>
          <g>
            <line class="cls-5" x1="11.67" y1="-145.89" x2="170.96" y2="65.15"/>
            <circle class="cls-5" cx="174.28" cy="69.56" r="7.91"/>
          </g>
          <g>
            <line class="cls-5" x1="44.98" y1="-75.49" x2="171.68" y2="92.39"/>
            <circle class="cls-5" cx="175.01" cy="96.79" r="7.91"/>
          </g>
          <g>
            <line class="cls-5" x1="48.12" y1="-123.88" x2="207.4" y2="87.17"/>
            <circle class="cls-5" cx="210.72" cy="91.57" r="7.91"/>
          </g>
          <g>
            <line class="cls-5" x1="41.1" y1="-160.23" x2="200.39" y2="50.82"/>
            <circle class="cls-5" cx="203.71" cy="55.22" r="7.91"/>
          </g>
          <g>
            <line class="cls-5" x1="41.86" y1="-185.5" x2="201.14" y2="25.55"/>
            <circle class="cls-5" cx="204.46" cy="29.95" r="7.91"/>
          </g>
          <g>
            <circle class="cls-5" cx="280.69" cy="51.46" r="7.91"/>
            <line class="cls-5" x1="55.98" y1="-246.27" x2="277.01" y2="46.59"/>
          </g>
          <g>
            <line class="cls-5" x1="74.74" y1="-195.19" x2="242.86" y2="27.55"/>
            <circle class="cls-5" cx="246.37" cy="32.2" r="8.35"/>
          </g>
          <circle class="cls-5" cx="199.84" cy="-2.45" r="7.91"/>
          <circle class="cls-5" cx="296.05" cy="-7.05" r="7.91"/>
        </g>
      </g>
    </g>
    <g>
      <circle class="cls-5" cx="143.82" cy="80.08" r="7.91"/>
      <g>
        <line class="cls-5" x1="31.16" y1="-69.19" x2="138.81" y2="73.45"/>
        <g>
          <g>
            <line class="cls-5" x1="12.47" y1="-146.5" x2="171.76" y2="64.55"/>
            <circle class="cls-5" cx="175.08" cy="68.95" r="7.91"/>
          </g>
          <g>
            <line class="cls-5" x1="45.77" y1="-76.1" x2="172.48" y2="91.79"/>
            <circle class="cls-5" cx="175.81" cy="96.19" r="7.91"/>
          </g>
          <g>
            <line class="cls-5" x1="48.91" y1="-124.48" x2="208.2" y2="86.57"/>
            <circle class="cls-5" cx="211.52" cy="90.97" r="7.91"/>
          </g>
          <g>
            <line class="cls-5" x1="41.9" y1="-160.83" x2="201.19" y2="50.22"/>
            <circle class="cls-5" cx="204.51" cy="54.62" r="7.91"/>
          </g>
          <g>
            <line class="cls-5" x1="42.65" y1="-186.1" x2="201.94" y2="24.95"/>
            <circle class="cls-5" cx="205.26" cy="29.35" r="7.91"/>
          </g>
          <g>
            <circle class="cls-5" cx="281.49" cy="50.86" r="7.91"/>
            <line class="cls-5" x1="56.78" y1="-246.88" x2="277.81" y2="45.98"/>
          </g>
          <g>
            <line class="cls-5" x1="75.54" y1="-195.79" x2="243.66" y2="26.95"/>
            <circle class="cls-5" cx="247.17" cy="31.6" r="8.35"/>
          </g>
          <circle class="cls-5" cx="200.64" cy="-3.05" r="7.91"/>
          <circle class="cls-5" cx="296.85" cy="-7.65" r="7.91"/>
        </g>
      </g>
    </g>
  </g>
  <g>
    <g>
      <g>
        <circle class="cls-5" cx="743.6" cy="1085.55" r="7.91"/>
        <g>
          <line class="cls-5" x1="831.71" y1="1258.74" x2="721.39" y2="1079.67"/>
          <circle class="cls-5" cx="718.49" cy="1074.97" r="7.91"/>
        </g>
        <g>
          <line class="cls-5" x1="877.93" y1="1273.41" x2="739.24" y2="1048.29"/>
          <circle class="cls-5" cx="736.34" cy="1043.6" r="7.91"/>
        </g>
        <g>
          <line class="cls-5" x1="909.24" y1="1293.16" x2="770.55" y2="1068.04"/>
          <circle class="cls-5" cx="767.65" cy="1063.35" r="7.91"/>
        </g>
        <g>
          <line class="cls-5" x1="933.05" y1="1301.65" x2="794.36" y2="1076.53"/>
          <circle class="cls-5" cx="791.47" cy="1071.83" r="7.91"/>
        </g>
        <g>
          <circle class="cls-5" cx="799.15" cy="993" r="7.91"/>
          <line class="cls-5" x1="994.81" y1="1310.58" x2="802.35" y2="998.2"/>
        </g>
        <g>
          <circle class="cls-5" cx="849.75" cy="1044.96" r="7.91"/>
          <line class="cls-5" x1="1019.96" y1="1321.24" x2="853.94" y2="1051.77"/>
        </g>
        <g>
          <line class="cls-5" x1="954.04" y1="1274.53" x2="807.66" y2="1036.94"/>
          <circle class="cls-5" cx="804.61" cy="1031.98" r="8.35"/>
        </g>
        <circle class="cls-5" cx="819.97" cy="1087.92" r="7.91"/>
        <line class="cls-5" x1="1117.06" y1="1265.91" x2="935.57" y2="971.32"/>
        <circle class="cls-5" cx="932.68" cy="966.62" r="7.91"/>
        <line class="cls-5" x1="1103.19" y1="1274.46" x2="939.13" y2="1008.17"/>
        <circle class="cls-5" cx="936.24" cy="1003.47" r="7.91"/>
        <line class="cls-5" x1="1087.71" y1="1279.51" x2="936" y2="1033.26"/>
        <circle class="cls-5" cx="933.1" cy="1028.56" r="7.91"/>
        <g>
          <circle class="cls-5" cx="859.24" cy="999.96" r="7.91"/>
          <line class="cls-5" x1="1054.9" y1="1317.55" x2="862.45" y2="1005.17"/>
        </g>
        <circle class="cls-5" cx="882.89" cy="1068.52" r="7.91"/>
        <line class="cls-5" x1="1033.46" y1="1312.92" x2="887.08" y2="1075.33"/>
        <line class="cls-5" x1="1058.32" y1="1293" x2="894.65" y2="1027.33"/>
        <circle class="cls-5" cx="891.6" cy="1022.37" r="8.35"/>
        <g>
          <line class="cls-5" x1="1076.24" y1="1291.07" x2="937.55" y2="1065.95"/>
          <circle class="cls-5" cx="934.65" cy="1061.25" r="7.91"/>
        </g>
      </g>
      <circle class="cls-5" cx="1068.89" cy="914.41" r="7.91"/>
      <line class="cls-5" x1="1250.92" y1="1209.87" x2="1072.1" y2="919.61"/>
      <line class="cls-5" x1="1139.84" y1="1272.68" x2="988.17" y2="1026.5"/>
      <circle class="cls-5" cx="985.28" cy="1021.81" r="7.91"/>
      <line class="cls-5" x1="1156.23" y1="1268.21" x2="1019.49" y2="1046.26"/>
      <circle class="cls-5" cx="1016.59" cy="1041.56" r="7.91"/>
      <line class="cls-5" x1="1174.73" y1="1268.06" x2="1043.3" y2="1054.74"/>
      <circle class="cls-5" cx="1040.41" cy="1050.04" r="7.91"/>
      <circle class="cls-5" cx="1048.09" cy="971.21" r="7.91"/>
      <line class="cls-5" x1="1215.5" y1="1242.95" x2="1051.29" y2="976.41"/>
      <line class="cls-5" x1="1197.02" y1="1243.07" x2="1056.6" y2="1015.15"/>
      <circle class="cls-5" cx="1053.55" cy="1010.19" r="8.35"/>
      <line class="cls-5" x1="1183.17" y1="1251.6" x2="1071.8" y2="1070.83"/>
      <circle class="cls-5" cx="1068.91" cy="1066.13" r="7.91"/>
    </g>
    <g>
      <g>
        <circle class="cls-5" cx="744.45" cy="1085.03" r="7.91"/>
        <g>
          <line class="cls-5" x1="832.56" y1="1258.22" x2="722.24" y2="1079.14"/>
          <circle class="cls-5" cx="719.35" cy="1074.45" r="7.91"/>
        </g>
        <g>
          <line class="cls-5" x1="878.78" y1="1272.88" x2="740.09" y2="1047.77"/>
          <circle class="cls-5" cx="737.19" cy="1043.07" r="7.91"/>
        </g>
        <g>
          <line class="cls-5" x1="910.09" y1="1292.64" x2="771.4" y2="1067.52"/>
          <circle class="cls-5" cx="768.5" cy="1062.82" r="7.91"/>
        </g>
        <g>
          <line class="cls-5" x1="933.91" y1="1301.12" x2="795.21" y2="1076"/>
          <circle class="cls-5" cx="792.32" cy="1071.31" r="7.91"/>
        </g>
        <g>
          <circle class="cls-5" cx="800" cy="992.48" r="7.91"/>
          <line class="cls-5" x1="995.66" y1="1310.06" x2="803.2" y2="997.68"/>
        </g>
        <g>
          <circle class="cls-5" cx="850.6" cy="1044.43" r="7.91"/>
          <line class="cls-5" x1="1020.81" y1="1320.72" x2="854.79" y2="1051.24"/>
        </g>
        <g>
          <line class="cls-5" x1="954.89" y1="1274.01" x2="808.52" y2="1036.41"/>
          <circle class="cls-5" cx="805.46" cy="1031.45" r="8.35"/>
        </g>
        <circle class="cls-5" cx="820.82" cy="1087.4" r="7.91"/>
        <line class="cls-5" x1="1117.92" y1="1265.39" x2="936.42" y2="970.8"/>
        <circle class="cls-5" cx="933.53" cy="966.1" r="7.91"/>
        <line class="cls-5" x1="1104.04" y1="1273.94" x2="939.98" y2="1007.64"/>
        <circle class="cls-5" cx="937.09" cy="1002.95" r="7.91"/>
        <line class="cls-5" x1="1088.56" y1="1278.98" x2="936.85" y2="1032.73"/>
        <circle class="cls-5" cx="933.95" cy="1028.04" r="7.91"/>
        <g>
          <circle class="cls-5" cx="860.09" cy="999.44" r="7.91"/>
          <line class="cls-5" x1="1055.75" y1="1317.02" x2="863.3" y2="1004.64"/>
        </g>
        <circle class="cls-5" cx="883.74" cy="1068" r="7.91"/>
        <line class="cls-5" x1="1034.31" y1="1312.4" x2="887.94" y2="1074.81"/>
        <line class="cls-5" x1="1059.18" y1="1292.47" x2="895.5" y2="1026.81"/>
        <circle class="cls-5" cx="892.45" cy="1021.85" r="8.35"/>
        <g>
          <line class="cls-5" x1="1077.09" y1="1290.54" x2="938.4" y2="1065.42"/>
          <circle class="cls-5" cx="935.51" cy="1060.73" r="7.91"/>
        </g>
      </g>
      <circle class="cls-5" cx="1069.74" cy="913.88" r="7.91"/>
      <line class="cls-5" x1="1251.77" y1="1209.34" x2="1072.95" y2="919.09"/>
      <line class="cls-5" x1="1140.69" y1="1272.15" x2="989.03" y2="1025.98"/>
      <circle class="cls-5" cx="986.13" cy="1021.28" r="7.91"/>
      <line class="cls-5" x1="1157.08" y1="1267.68" x2="1020.34" y2="1045.73"/>
      <circle class="cls-5" cx="1017.44" cy="1041.03" r="7.91"/>
      <line class="cls-5" x1="1175.58" y1="1267.54" x2="1044.15" y2="1054.22"/>
      <circle class="cls-5" cx="1041.26" cy="1049.52" r="7.91"/>
      <circle class="cls-5" cx="1048.94" cy="970.69" r="7.91"/>
      <line class="cls-5" x1="1216.35" y1="1242.42" x2="1052.14" y2="975.89"/>
      <line class="cls-5" x1="1197.87" y1="1242.55" x2="1057.45" y2="1014.62"/>
      <circle class="cls-5" cx="1054.4" cy="1009.67" r="8.35"/>
      <line class="cls-5" x1="1184.03" y1="1251.08" x2="1072.65" y2="1070.3"/>
      <circle class="cls-5" cx="1069.76" cy="1065.61" r="7.91"/>
    </g>
  </g>
  <g>
    <g>
      <circle class="cls-7" cx="711.37" cy="545.49" r="7.33"/>
      <g>
        <circle class="cls-6" cx="711.37" cy="392.14" r="11.2"/>
        <path class="cls-7" d="M715.12,542.18v-31.84c0-4.83-7.5-4.83-7.5,0v31.84c0,4.83,7.5,4.83,7.5,0h0Z"/>
        <g>
          <circle class="cls-6" cx="708.94" cy="471.64" r="15.27"/>
          <circle class="cls-6" cx="771.84" cy="512.2" r="7.33"/>
          <circle class="cls-7" cx="743.62" cy="513.67" r="7.33"/>
          <circle class="cls-7" cx="633.55" cy="468.67" r="10.87"/>
          <path class="cls-7" d="M643.13,472.42h28.88c4.83,0,4.83-7.5,0-7.5h-28.88c-4.83,0-4.83,7.5,0,7.5h0Z"/>
          <g>
            <circle class="cls-6" cx="771.84" cy="411.67" r="7.33"/>
            <circle class="cls-7" cx="743.62" cy="411.67" r="7.33"/>
            <g>
              <path class="cls-7" d="M259.65,394.27c-20.95.14-41.9,0-62.84.15-3.41.02-5.41-.97-7.4-3.82-6.53-9.35-18-12.75-27.97-8.75-9.71,3.9-15.66,12.82-15.19,22.76.52,11.07,6.86,19.32,17.14,22.3,10.1,2.93,20.49-.75,26.4-9.75,1.75-2.66,3.64-3.46,6.66-3.4,9.28.17,18.55.06,27.82.06s17.93-.31,26.86.13c4.54.22,6.61-1.24,7.68-5.53.84-3.38,2.29-6.67,3.9-9.77,2-3.84.7-4.42-3.06-4.39ZM169.92,413.83c-5.41-.02-9.71-4.27-9.79-9.66-.07-5.44,4.61-10,10.13-9.84,5.31.16,9.61,4.62,9.57,9.94-.04,5.23-4.54,9.57-9.91,9.56Z"/>
              <path class="cls-7" d="M855.29,449.43l.02.02h-6.34c-7.84-65.58-63.58-116.44-131.27-116.44-62.91,0-115.43,43.92-128.9,102.74l-30.3-15.83c-3.06-1.59-6.73-1.59-9.79,0l-30.3,15.83c-7.22-31.6-25.73-58.89-51.06-77.39-.09-.07-.18-.14-.27-.2-9.2-6.93-19.56-12.94-31.08-18.03-17.5-7.74-36-10.75-55.09-10.73-79.15.06-158.3,0-237.45.1-1.75,0-3.28-.1-4.62-.57-3.88-9.01-12.84-15.31-23.28-15.31-14,0-25.35,11.35-25.35,25.35s11.35,25.35,25.35,25.35c10.21,0,19.02-6.04,23.03-14.73,1.03-.29,2.13-.3,3.34-.3,61.31,0,122.63,0,183.95,0-36.5,20.09-62.47,56.93-67.66,100.14h-6.33c-5,0-9.46,2.31-12.37,5.93-2.43.02-4.87.04-7.3.07-3.69.06-6.05-.92-8.31-4.05-6.48-9.01-17.53-12.22-27.21-8.44-9.9,3.85-15.97,12.8-15.6,23.03.38,10.77,6.91,19.17,17.28,22.23,9.5,2.8,20.22-1.01,26.08-9.63,1.75-2.58,3.59-3.53,6.66-3.46,2.8.07,5.61.14,8.41.16,2.9,3.61,7.36,5.92,12.36,5.92h6.33c7.86,65.59,63.58,116.44,131.3,116.44,47.09,0,88.44-24.59,111.88-61.65.15-.23.3-.47.44-.7.64-1.09,1.27-2.19,1.88-3.3.14-.15.25-.31.38-.46,11.28-19.47,17.74-42.09,17.74-66.21,0-2.46-.24-4.87-.37-7.31l32.13-16.78,32.13,16.78c-.14,2.41-.38,4.85-.38,7.31,0,73.07,59.25,132.32,132.33,132.32,67.7,0,123.42-50.85,131.28-116.44h6.33c8.78,0,15.89-7.11,15.89-15.89s-7.11-15.89-15.89-15.89ZM115.49,348.69c-5.55,0-9.58-4-9.66-9.6-.07-5.52,3.98-9.72,9.47-9.83,5.62-.1,10.02,4.26,9.99,9.88-.03,5.39-4.31,9.55-9.8,9.55ZM204.98,475.16c-5.62.05-9.88-4.31-9.83-10.06.05-5.47,4.21-9.68,9.64-9.75,5.5-.06,9.93,4.42,9.93,10.05,0,5.31-4.39,9.71-9.74,9.75ZM500.67,466.76v.07c-.81,60.6-50.35,109.64-111.15,109.64s-111.16-49.86-111.16-111.15,49.87-111.16,111.16-111.16c50.01,0,92.4,33.18,106.32,78.68,3.15,10.28,4.84,21.18,4.84,32.48,0,.48,0,.95,0,1.44ZM717.68,576.47c-61.3,0-111.16-49.86-111.16-111.15s49.87-111.15,111.16-111.15,111.16,49.86,111.16,111.15-49.86,111.15-111.16,111.15Z"/>
            </g>
            <g>
              <path class="cls-1" d="M432.48,465.81c0,14.17-6.66,26.79-17.03,34.88-.41.32-.82.64-1.24.96,0,0,0,0,0,0-.52-.6-.68-1.49-.96-2.26-2.56-7.03-5.96-13.59-10.38-19.6,2.75-3.53,4.38-8.01,4.38-12.89,0-2.75-.52-5.36-1.46-7.75-.05-.13-.11-.27-.16-.4,2.1-1.66,3.44-4.22,3.44-7.11,0-5.02-4.07-9.07-9.07-9.07-3.29,0-6.17,1.74-7.75,4.36-1.56-.41-3.2-.63-4.88-.63-1.97,0-3.88.29-5.68.86-3.71,1.14-6.97,3.38-9.43,6.35-.11.11-.21.22-.32.33-7.73-3.01-15.4-6.2-23.81-6.71,0-.01,0-.02.01-.04.31-.66.64-1.31.99-1.96,7.41-14.01,22.15-23.56,39.11-23.56,24.44,0,44.25,19.81,44.25,44.25Z"/>
              <g>
                <path class="cls-7" d="M419.51,528.46c-.41.21-.84.42-1.26.62-.09.05-.19.09-.28.13-8.96,4.21-18.97,6.59-29.53,6.62-.77.55-1.07,1.48-.84,3.09.16,1.1.08,1.9-.18,2.49-.18.41-.46.7-.83.91-.75.44-1.85.5-3.22.37-35.54-3.44-62.27-26.42-70.18-60.58-.98-4.24-1.22-8.63-1.86-12.94-.46-2.99.34-4.72,3.76-4.12,1.55.27,2.54.09,3.13-.6.12-6.29,1.07-12.37,2.75-18.14l24.12,9.63c-.72,3.18-1.11,6.49-1.11,9.89,0,24.44,19.81,44.26,44.25,44.26,6.14,0,11.98-1.25,17.29-3.52l13.98,21.91Z"/>
                <g>
                  <path class="cls-4" d="M476.23,475c-6.73,36.66-27.8,61.25-62.91,73.77-6.69,2.38-13.62,3.64-20.71,4.12-6.67.45-6.66.54-6.49-6.07q.15-5.74,5.94-6.13c37.57-2.55,68.92-32.97,72.45-70.5.3-3.15,1.14-4,4.27-3.86,8.6.36,8.99.29,7.45,8.67Z"/>
                  <path class="cls-4" d="M307.06,465.19q-7.37-.14-6.49-6.67c5.65-41.6,37.55-73.92,79-80,.98-.14,1.97-.22,2.95-.29,8.56-.63,8.41-.63,8.39,7.87,0,3.12-.91,3.97-4.06,4.13-38.34,1.88-70.31,32.13-73.8,70.2-.51,5.61-3.25,5.08-5.99,4.76Z"/>
                  <path class="cls-7" d="M440.19,434.25c-5.64-.04-10.88-2.25-14.78-6.22-3.83-3.91-5.9-9.09-5.82-14.58.16-11.59,9.3-20.67,20.79-20.67h.11c11.58.05,20.63,9.25,20.6,20.94-.03,11.51-9.15,20.53-20.75,20.53h-.16Z"/>
                  <path class="cls-4" d="M458.25,465.81c0,.71-.01,1.42-.04,2.12-.5,16.74-6.87,32.01-17.14,43.81-3.48,4.01-7.42,7.61-11.72,10.74-3.1,2.25-6.39,4.26-9.85,5.98l-13.98-21.91c2.6-1.1,5.07-2.44,7.39-4,.44-.29.86-.59,1.29-.9,0,0,0,0,0,0,.42-.32.84-.63,1.24-.96,10.37-8.09,17.03-20.71,17.03-34.88,0-24.44-19.81-44.25-44.25-44.25-16.96,0-31.7,9.55-39.11,23.56-.35.65-.68,1.3-.99,1.96,0,.01-.01.02-.01.04-1.3,2.79-2.32,5.74-3.03,8.81l-24.12-9.63c1.07-3.73,2.46-7.33,4.12-10.77,11.26-23.42,35.16-39.61,62.87-39.72h.27c9.99,0,19.5,2.09,28.1,5.87-1.77,3.56-2.75,7.58-2.75,11.83,0,14.77,11.98,26.75,26.76,26.75,4.28,0,8.33-1.01,11.92-2.8,3.86,8.67,5.99,18.27,5.99,28.36Z"/>
                </g>
              </g>
              <path class="cls-4" d="M407.25,466.89c0,4.88-1.64,9.36-4.38,12.89-3.64,4.71-9.24,7.71-15.51,7.71-10.98,0-19.88-9.22-19.88-20.6,0-5.11,1.8-9.79,4.78-13.39,2.86-2.89,5.95-5.15,9.43-6.35,1.8-.56,3.71-.86,5.68-.86,1.69,0,3.32.22,4.88.63-.84,1.37-1.32,2.99-1.32,4.71,0,5.02,4.06,9.07,9.07,9.07,2.13,0,4.09-.74,5.63-1.97.06.13.11.27.16.4.94,2.4,1.46,5.01,1.46,7.75Z"/>
            </g>
            <circle class="cls-6" cx="668.49" cy="512.2" r="12.52"/>
            <circle class="cls-6" cx="668.49" cy="417.55" r="12.52"/>
            <path class="cls-7" d="M715.12,435.18v-31.84c0-4.83-7.5-4.83-7.5,0v31.84c0,4.83,7.5,4.83,7.5,0h0Z"/>
            <path class="cls-7" d="M743.17,481.63h64.99c7.24,0,7.25-11.25,0-11.25h-64.99c-7.24,0-7.25,11.25,0,11.25h0Z"/>
            <rect class="cls-7" x="737.58" y="440.64" width="76.18" height="9.96"/>
          </g>
        </g>
      </g>
    </g>
    <g>
      <path class="cls-4" d="M297.76,620.07h30.03l-1.62.45c-1.08.3-2.39,1.3-3.91,3.01-1.52,1.7-2.98,4.56-4.35,8.57-.2.7-.84,2.68-1.92,5.94s-2.44,7.35-4.06,12.26-3.37,10.23-5.24,15.95-3.71,11.41-5.53,17.07c-1.82,5.67-3.49,10.83-5.02,15.5l-3.62,11.06c.59,1.4,1.03,2.51,1.33,3.31,1.97,3.61,3.89,6.37,5.76,8.27s3.84,2.86,5.9,2.86c-3.74,0-7.72-.25-11.95-.75-4.23-.5-8.19-1.73-11.88-3.69-3.69-1.96-6.62-5.19-8.78-9.7-1.28-2.71-2.51-6.39-3.69-11.06-1.18-4.66-2.29-9.65-3.32-14.97-1.03-5.31-1.99-10.33-2.88-15.04-.49-2.21-.96-4.41-1.4-6.62-.44-2.21-.91-4.36-1.4-6.47-.59-2.71-1.25-5.39-1.99-8.05-.74-2.66-1.55-5.24-2.43-7.75-1.97-5.22-4.77-10.18-8.41-14.89-1.08-1.2-2.12-2.21-3.1-3.01-.49-.4-1.13-.88-1.92-1.43s-1.43-.83-1.92-.83c2.85,0,5.71.78,8.56,2.33s5.41,3.29,7.67,5.19,3.84,3.41,4.72,4.51c4.62,5.42,8.34,11.33,11.14,17.75,2.8,6.42,5.16,13.04,7.08,19.86s3.91,13.49,5.98,20.01c.29.9.96,2.98,1.99,6.24,1.03,3.26,2.09,6.49,3.17,9.7.79-2.31,1.52-4.54,2.21-6.69s1.08-3.33,1.18-3.54c.69-2.21,1.7-5.32,3.02-9.33s2.75-8.4,4.28-13.16c1.52-4.76,3.02-9.38,4.5-13.84s2.73-8.3,3.76-11.51c1.03-3.21,1.7-5.27,1.99-6.17,1.38-4.51,1.3-8.37-.22-11.58-1.52-3.21-3.89-5.64-7.08-7.3-3.2-1.65-6.52-2.48-9.96-2.48h3.32Z"/>
      <path class="cls-4" d="M352.88,699.72c1.38,5.67,3.05,10.15,5.02,13.46,1.97,3.31,3.89,5.77,5.76,7.37s3.42,2.63,4.65,3.08l1.84.68h-42.5l1.84-.68c1.23-.45,2.8-1.48,4.72-3.08s3.84-4.06,5.76-7.37c1.92-3.31,3.57-7.8,4.94-13.46,1.38-5.67,2.21-12.86,2.51-21.59,0-1.71.02-3.41.07-5.12s-.07-3.36-.37-4.96c-.69-3.21-2.07-5.82-4.13-7.82-1.28-1.4-2.93-2.58-4.94-3.54s-3.22-1.43-3.62-1.43h28.92c-.29,0-1.3.4-3.02,1.2-1.72.8-2.93,1.45-3.62,1.96-2.36,1.81-4.08,4.06-5.17,6.77-.89,2.01-1.3,4.11-1.25,6.32.05,2.21.07,4.41.07,6.62.3,8.72,1.13,15.92,2.51,21.59Z"/>
      <path class="cls-4" d="M430.06,699.12c.89,3.06,1.13,6.09.74,9.1-.39,2.71-1.45,5.12-3.17,7.22-1.72,2.11-3.81,3.81-6.27,5.12s-4.87,2.26-7.23,2.86c-3.54.9-7.16,1.23-10.85.98-3.69-.25-7.3-.73-10.85-1.43-1.48-.4-2.95-.73-4.43-.98-1.48-.25-2.95-.33-4.43-.23-1.48.2-2.88.75-4.21,1.66-1.33.9-2.19,2.06-2.58,3.46,0-5.21.02-10.46.07-15.72s.07-10.51.07-15.72c.39,4.81,1.92,9.33,4.57,13.54,2.66,4.21,6.1,7.37,10.33,9.48,4.23,2.11,8.78,3.16,13.65,3.16s9.42-1.1,13.65-3.31c1.77-.9,3.12-2.31,4.06-4.21s.91-3.96-.07-6.17c-.59-1.3-1.99-2.68-4.21-4.14-2.21-1.46-4.82-2.91-7.82-4.36s-6-2.88-9-4.29c-3-1.4-5.63-2.76-7.9-4.06-3.64-2.11-6.71-4.79-9.22-8.05-2.51-3.26-3.96-7.04-4.35-11.36-.39-4.11.29-7.37,2.07-9.78,1.77-2.41,4.13-4.14,7.08-5.19,2.95-1.05,6.2-1.53,9.74-1.43,3.54.1,6.89.55,10.03,1.35,2.26.6,4.8,1.05,7.6,1.35s5.19-.2,7.16-1.5c.69-.4,1.28-.95,1.77-1.66.49-.7.74-1.35.74-1.96v24.37-.15c-.2-3.61-1.3-6.67-3.32-9.18-2.02-2.51-4.53-4.51-7.53-6.02-3-1.5-6.15-2.58-9.44-3.23-3.3-.65-6.37-.88-9.22-.68-1.87.2-3.81.63-5.83,1.28-2.02.65-3.66,1.71-4.94,3.16-1.28,1.45-1.77,3.43-1.48,5.94.3,2.61,1.21,4.59,2.73,5.94,1.52,1.35,3.37,2.33,5.53,2.93,2.16.6,4.28,1.15,6.35,1.66,4.53,1,9.2,2.46,14.02,4.36,4.82,1.91,8.85,4.61,12.1,8.12,1.97,2.11,3.39,4.69,4.28,7.75Z"/>
      <path class="cls-4" d="M462.38,699.72c1.38,5.67,3.05,10.15,5.02,13.46,1.97,3.31,3.89,5.77,5.76,7.37s3.42,2.63,4.65,3.08l1.84.68h-42.5l1.84-.68c1.23-.45,2.8-1.48,4.72-3.08s3.84-4.06,5.76-7.37c1.92-3.31,3.57-7.8,4.94-13.46,1.38-5.67,2.21-12.86,2.51-21.59,0-1.71.02-3.41.07-5.12s-.07-3.36-.37-4.96c-.69-3.21-2.07-5.82-4.13-7.82-1.28-1.4-2.93-2.58-4.94-3.54s-3.22-1.43-3.62-1.43h28.92c-.29,0-1.3.4-3.02,1.2-1.72.8-2.93,1.45-3.62,1.96-2.36,1.81-4.08,4.06-5.17,6.77-.89,2.01-1.3,4.11-1.25,6.32.05,2.21.07,4.41.07,6.62.3,8.72,1.13,15.92,2.51,21.59ZM455.3,641.58c-1.57-2.01-3.27-3.49-5.09-4.44-1.82-.95-3.39-1.55-4.72-1.81l-1.99-.38,1.99-.38c1.33-.25,2.9-.85,4.72-1.81,1.82-.95,3.52-2.43,5.09-4.44,1.57-2.01,2.61-4.76,3.1-8.27.49,3.51,1.55,6.27,3.17,8.27,1.62,2.01,3.32,3.49,5.09,4.44,1.77.95,3.32,1.55,4.65,1.81l1.99.38-1.99.38c-1.33.25-2.88.85-4.65,1.81-1.77.95-3.47,2.43-5.09,4.44-1.62,2.01-2.68,4.76-3.17,8.27-.49-3.51-1.52-6.27-3.1-8.27ZM345.8,641.58c-1.57-2.01-3.27-3.49-5.09-4.44-1.82-.95-3.39-1.55-4.72-1.81l-1.99-.38,1.99-.38c1.33-.25,2.9-.85,4.72-1.81,1.82-.95,3.52-2.43,5.09-4.44,1.57-2.01,2.61-4.76,3.1-8.27.49,3.51,1.55,6.27,3.17,8.27,1.62,2.01,3.32,3.49,5.09,4.44,1.77.95,3.32,1.55,4.65,1.81l1.99.38-1.99.38c-1.33.25-2.88.85-4.65,1.81-1.77.95-3.47,2.43-5.09,4.44-1.62,2.01-2.68,4.76-3.17,8.27-.49-3.51-1.52-6.27-3.1-8.27Z"/>
      <path class="cls-4" d="M529.01,659.41c4.38,3.16,7.87,7.4,10.48,12.71,2.61,5.32,3.91,11.23,3.91,17.75s-1.3,12.31-3.91,17.68c-2.61,5.37-6.1,9.63-10.48,12.79s-9.22,4.74-14.54,4.74-10.16-1.58-14.54-4.74-7.87-7.42-10.48-12.79c-2.61-5.37-3.91-11.26-3.91-17.68s1.3-12.44,3.91-17.75,6.1-9.55,10.48-12.71,9.22-4.74,14.54-4.74,10.16,1.58,14.54,4.74ZM526.57,706.64c3.64-2.36,6.54-5.52,8.71-9.48,2.16-3.96,3.25-8.35,3.25-13.16s-1.08-9.2-3.25-13.16c-2.16-3.96-5.07-7.12-8.71-9.48-3.64-2.36-7.67-3.54-12.1-3.54s-8.46,1.18-12.1,3.54c-3.64,2.36-6.54,5.52-8.71,9.48-2.16,3.96-3.25,8.35-3.25,13.16s1.08,9.2,3.25,13.16c2.16,3.96,5.07,7.12,8.71,9.48,3.64,2.36,7.67,3.54,12.1,3.54s8.46-1.18,12.1-3.54Z"/>
      <path class="cls-4" d="M610.61,699.95c.74,5.62,1.7,10.1,2.88,13.46,1.18,3.36,2.41,5.87,3.69,7.52,1.28,1.65,2.51,2.78,3.69,3.38h-34.38c1.97,0,4.11-.75,6.42-2.26,2.31-1.5,4.53-3.99,6.64-7.45,2.11-3.46,3.81-8.15,5.09-14.07,1.28-5.92,1.92-13.24,1.92-21.96v-2.86c0-3.21-.76-6.14-2.29-8.8-1.52-2.66-3.59-4.76-6.2-6.32-2.61-1.55-5.48-2.33-8.63-2.33h-6.49c-4.43,0-8.39,1.33-11.88,3.99-3.49,2.66-5.24,6.54-5.24,11.66,0,9.93.69,18.15,2.07,24.67,1.38,6.52,3.15,11.66,5.31,15.42,2.17,3.76,4.4,6.42,6.71,7.97s4.45,2.33,6.42,2.33h-36.45l1.25-.68c.84-.45,1.89-1.53,3.17-3.23,1.28-1.71,2.56-4.46,3.84-8.27,1.28-3.81,2.36-9.08,3.25-15.8.88-6.72,1.38-15.29,1.48-25.72-.1-4.11-.81-7.27-2.14-9.48-1.33-2.21-2.63-3.74-3.91-4.59l-1.92-1.28h34.53c3.74,0,7.13.93,10.18,2.78s5.46,4.34,7.23,7.45c1.77,3.11,2.66,6.52,2.66,10.23v2.86c0,8.62.37,15.75,1.11,21.36Z"/>
      <path class="cls-4" d="M721.36,724.32c-2.16,0-4.75-.1-7.75-.3-3-.2-6.08-.75-9.22-1.66-3.15-.9-6.05-2.31-8.71-4.21s-4.77-4.56-6.35-7.97c-1.18-2.71-2.31-6.39-3.39-11.06-1.08-4.66-2.09-9.68-3.03-15.04-.93-5.37-1.84-10.4-2.73-15.12-.2-1.6-.47-3.31-.81-5.12-.34-1.8-.66-3.66-.96-5.57h-21.1c-.79,2.41-1.55,4.66-2.29,6.77-.74,2.11-1.35,3.91-1.84,5.42-2.95,8.32-4.67,15.45-5.17,21.36s-.17,10.86.96,14.82c1.13,3.96,2.71,7.12,4.72,9.48,2.02,2.36,4.06,4.14,6.12,5.34,2.07,1.2,3.84,1.98,5.31,2.33l2.21.53h-45.01l1.18-.75c.79-.5,1.92-1.63,3.39-3.38s3.32-4.51,5.53-8.27c2.21-3.76,4.75-8.88,7.6-15.34,2.85-6.47,6-14.72,9.44-24.75.98-2.61,2.21-6.07,3.69-10.38s3-8.8,4.57-13.46c1.57-4.66,3.05-9.03,4.43-13.09,1.38-4.06,2.46-7.2,3.25-9.4-2.17-2.61-4.6-4.56-7.3-5.87-2.71-1.3-6.57-2.41-11.58-3.31,4.03,0,7.62.33,10.77.98,3.15.65,6.15,1.78,9,3.38,2.85,1.6,5.85,3.91,9,6.92,3.94,3.81,7.28,8.2,10.03,13.16,2.75,4.96,5.12,10.23,7.08,15.8s3.69,11.21,5.17,16.92c1.48,5.72,3,11.18,4.57,16.4.2.7.59,2.08,1.18,4.14.59,2.06,1.28,4.36,2.07,6.92s1.6,4.99,2.44,7.3c.84,2.31,1.55,4.06,2.14,5.27,3.54,7.22,7.33,10.83,11.36,10.83ZM677.83,655.27c-.89-4.51-1.99-8.98-3.32-13.39-1.33-4.41-2.98-8.07-4.94-10.98-.69-1-1.33-1.91-1.92-2.71-1.08,3.01-2.48,7.05-4.21,12.11s-3.42,10.05-5.09,14.97h19.48Z"/>
      <path class="cls-4" d="M747.19,699.72c1.38,5.67,3.05,10.15,5.02,13.46,1.97,3.31,3.89,5.77,5.75,7.37s3.42,2.63,4.65,3.08l1.84.68h-42.5l1.84-.68c1.23-.45,2.8-1.48,4.72-3.08,1.92-1.6,3.84-4.06,5.75-7.37,1.92-3.31,3.57-7.8,4.94-13.46,1.38-5.67,2.21-12.86,2.51-21.59,0-1.71.03-3.41.07-5.12s-.07-3.36-.37-4.96c-.69-3.21-2.07-5.82-4.13-7.82-1.28-1.4-2.93-2.58-4.94-3.54s-3.22-1.43-3.62-1.43h28.92c-.29,0-1.3.4-3.03,1.2-1.72.8-2.93,1.45-3.62,1.96-2.36,1.81-4.08,4.06-5.17,6.77-.88,2.01-1.3,4.11-1.25,6.32.05,2.21.07,4.41.07,6.62.29,8.72,1.13,15.92,2.51,21.59ZM740.11,641.58c-1.57-2.01-3.27-3.49-5.09-4.44-1.82-.95-3.39-1.55-4.72-1.81l-1.99-.38,1.99-.38c1.33-.25,2.9-.85,4.72-1.81,1.82-.95,3.52-2.43,5.09-4.44s2.61-4.76,3.1-8.27c.49,3.51,1.55,6.27,3.17,8.27,1.62,2.01,3.32,3.49,5.09,4.44,1.77.95,3.32,1.55,4.65,1.81l1.99.38-1.99.38c-1.33.25-2.88.85-4.65,1.81-1.77.95-3.47,2.43-5.09,4.44-1.62,2.01-2.68,4.76-3.17,8.27-.49-3.51-1.53-6.27-3.1-8.27Z"/>
      <path class="cls-4" d="M826.44,694.53c.98,6.92,2.21,12.39,3.69,16.4s2.93,6.97,4.35,8.88c1.43,1.91,2.63,3.13,3.62,3.69l1.48.83h-41.91c-5.31,0-10.01-1.55-14.09-4.66-4.08-3.11-7.28-7.27-9.59-12.49-2.31-5.22-3.47-11.03-3.47-17.45s1.16-12.08,3.47-17.3c2.31-5.21,5.51-9.38,9.59-12.49,4.08-3.11,8.78-4.66,14.09-4.66h24.35v-19.56c0-3.41-1.06-6.29-3.17-8.65-2.12-2.36-4.62-4.11-7.53-5.27-2.9-1.15-5.39-1.73-7.45-1.73h29.07l-1.99,1.28c-1.33.85-2.66,2.41-3.98,4.66-1.33,2.26-1.99,5.49-1.99,9.7v32.5c0,10.63.49,19.41,1.48,26.33ZM809.61,706.42c3.44-2.31,6.12-5.42,8.04-9.33,1.92-3.91,2.88-8.27,2.88-13.09s-.96-9.03-2.88-12.94c-1.92-3.91-4.6-7.04-8.04-9.4-3.44-2.36-7.43-3.54-11.95-3.54s-8.36,1.18-11.81,3.54c-3.44,2.36-6.12,5.49-8.04,9.4-1.92,3.91-2.88,8.22-2.88,12.94s.96,9.18,2.88,13.09c1.92,3.91,4.6,7.02,8.04,9.33s7.38,3.46,11.81,3.46,8.51-1.15,11.95-3.46Z"/>
    </g>
    <polygon class="cls-7" points="324.38 775.18 243.84 770.18 324.38 765.18 324.38 775.18 324.38 775.18"/>
    <polygon class="cls-7" points="757.46 765.18 838 770.18 757.46 775.18 757.46 765.18 757.46 765.18"/>
    <text class="cls-3" transform="translate(337.28 780.23) scale(.88 1)"><tspan x="0" y="0">Emp</tspan><tspan class="cls-8" x="62.11" y="0">ow</tspan><tspan x="101.95" y="0">ering Sight, Enhancing Li</tspan><tspan class="cls-9" x="434.52" y="0">f</tspan><tspan x="444.22" y="0">e</tspan></text>
  </g>
</svg>