<?xml version="1.0" encoding="UTF-8"?>
<svg id="Layer_1" xmlns="http://www.w3.org/2000/svg" viewBox="0 0 1080 1080">
  <defs>
    <style>
      .cls-1 {
        fill: #2da0c2;
      }

      .cls-2 {
        font-family: TAN-PEARL-Regular, 'TAN - PEARL';
        font-size: 22px;
      }

      .cls-2, .cls-3 {
        fill: #1a83a8;
      }

      .cls-4 {
        fill: none;
        stroke: #339eca;
        stroke-miterlimit: 10;
        stroke-width: 9px;
      }

      .cls-5 {
        fill: #339eca;
      }

      .cls-6 {
        letter-spacing: -.06em;
      }

      .cls-7 {
        letter-spacing: -.1em;
      }

      .cls-8 {
        fill: #feffff;
      }
    </style>
  </defs>
  <ellipse class="cls-8" cx="397.41" cy="520.36" rx="56.05" ry="49.93"/>
  <g>
    <g>
      <circle class="cls-5" cx="743.75" cy="511.37" r="7.33"/>
      <g>
        <circle class="cls-4" cx="743.75" cy="358.02" r="11.2"/>
        <path class="cls-5" d="M747.5,508.05v-31.84c0-4.83-7.5-4.83-7.5,0v31.84c0,4.83,7.5,4.83,7.5,0h0Z"/>
        <g>
          <circle class="cls-4" cx="741.32" cy="437.52" r="15.27"/>
          <circle class="cls-4" cx="804.23" cy="478.07" r="7.33"/>
          <circle class="cls-5" cx="776.01" cy="479.54" r="7.33"/>
          <circle class="cls-5" cx="665.93" cy="434.55" r="10.87"/>
          <path class="cls-5" d="M675.51,438.3h28.88c4.83,0,4.83-7.5,0-7.5h-28.88c-4.83,0-4.83,7.5,0,7.5h0Z"/>
          <g>
            <circle class="cls-4" cx="804.23" cy="377.54" r="7.33"/>
            <circle class="cls-5" cx="776.01" cy="377.54" r="7.33"/>
            <g>
              <path class="cls-5" d="M292.03,360.15c-20.95.14-41.9,0-62.84.15-3.41.02-5.41-.97-7.4-3.82-6.53-9.35-18-12.75-27.97-8.75-9.71,3.9-15.66,12.82-15.19,22.76.52,11.07,6.86,19.32,17.14,22.3,10.1,2.93,20.49-.75,26.4-9.75,1.75-2.66,3.64-3.46,6.66-3.4,9.28.17,18.55.06,27.82.06s17.93-.31,26.86.13c4.54.22,6.61-1.24,7.68-5.53.84-3.38,2.29-6.67,3.9-9.77,2-3.84.7-4.42-3.06-4.39ZM202.3,379.71c-5.41-.02-9.71-4.27-9.79-9.66-.07-5.44,4.61-10,10.13-9.84,5.31.16,9.61,4.62,9.57,9.94-.04,5.23-4.54,9.57-9.91,9.56Z"/>
              <path class="cls-5" d="M887.67,415.3l.02.02h-6.34c-7.84-65.58-63.58-116.44-131.27-116.44-62.91,0-115.43,43.92-128.9,102.74l-30.3-15.83c-3.06-1.59-6.73-1.59-9.79,0l-30.3,15.83c-7.22-31.6-25.73-58.89-51.06-77.39-.09-.07-.18-.14-.27-.2-9.2-6.93-19.56-12.94-31.08-18.03-17.5-7.74-36-10.75-55.09-10.73-79.15.06-158.3,0-237.45.1-1.75,0-3.28-.1-4.62-.57-3.88-9.01-12.84-15.31-23.28-15.31-14,0-25.35,11.35-25.35,25.35s11.35,25.35,25.35,25.35c10.21,0,19.02-6.04,23.03-14.73,1.03-.29,2.13-.3,3.34-.3,61.31,0,122.63,0,183.95,0-36.5,20.09-62.47,56.93-67.66,100.14h-6.33c-5,0-9.46,2.31-12.37,5.93-2.43.02-4.87.04-7.3.07-3.69.06-6.05-.92-8.31-4.05-6.48-9.01-17.53-12.22-27.21-8.44-9.9,3.85-15.97,12.8-15.6,23.03.38,10.77,6.91,19.17,17.28,22.23,9.5,2.8,20.22-1.01,26.08-9.63,1.75-2.58,3.59-3.53,6.66-3.46,2.8.07,5.61.14,8.41.16,2.9,3.61,7.36,5.92,12.36,5.92h6.33c7.86,65.59,63.58,116.44,131.3,116.44,47.09,0,88.44-24.59,111.88-61.65.15-.23.3-.47.44-.7.64-1.09,1.27-2.19,1.88-3.3.14-.15.25-.31.38-.46,11.28-19.47,17.74-42.09,17.74-66.21,0-2.46-.24-4.87-.37-7.31l32.13-16.78,32.13,16.78c-.14,2.41-.38,4.85-.38,7.31,0,73.07,59.25,132.32,132.33,132.32,67.7,0,123.42-50.85,131.28-116.44h6.33c8.78,0,15.89-7.11,15.89-15.89s-7.11-15.89-15.89-15.89ZM147.88,314.57c-5.55,0-9.58-4-9.66-9.6-.07-5.52,3.98-9.72,9.47-9.83,5.62-.1,10.02,4.26,9.99,9.88-.03,5.39-4.31,9.55-9.8,9.55ZM237.36,441.04c-5.62.05-9.88-4.31-9.83-10.06.05-5.47,4.21-9.68,9.64-9.75,5.5-.06,9.93,4.42,9.93,10.05,0,5.31-4.39,9.71-9.74,9.75ZM533.05,432.63v.07c-.81,60.6-50.35,109.64-111.15,109.64s-111.16-49.86-111.16-111.15,49.87-111.16,111.16-111.16c50.01,0,92.4,33.18,106.32,78.68,3.15,10.28,4.84,21.18,4.84,32.48,0,.48,0,.95,0,1.44ZM750.06,542.35c-61.3,0-111.16-49.86-111.16-111.15s49.87-111.15,111.16-111.15,111.16,49.86,111.16,111.15-49.86,111.15-111.16,111.15Z"/>
            </g>
            <g>
              <path class="cls-1" d="M464.87,431.69c0,14.17-6.66,26.79-17.03,34.88-.41.32-.82.64-1.24.96,0,0,0,0,0,0-.52-.6-.68-1.49-.96-2.26-2.56-7.03-5.96-13.59-10.38-19.6,2.75-3.53,4.38-8.01,4.38-12.89,0-2.75-.52-5.36-1.46-7.75-.05-.13-.11-.27-.16-.4,2.1-1.66,3.44-4.22,3.44-7.11,0-5.02-4.07-9.07-9.07-9.07-3.29,0-6.17,1.74-7.75,4.36-1.56-.41-3.2-.63-4.88-.63-1.97,0-3.88.29-5.68.86-3.71,1.14-6.97,3.38-9.43,6.35-.11.11-.21.22-.32.33-7.73-3.01-15.4-6.2-23.81-6.71,0-.01,0-.02.01-.04.31-.66.64-1.31.99-1.96,7.41-14.01,22.15-23.56,39.11-23.56,24.44,0,44.25,19.81,44.25,44.25Z"/>
              <g>
                <path class="cls-5" d="M451.9,494.34c-.41.21-.84.42-1.26.62-.09.05-.19.09-.28.13-8.96,4.21-18.97,6.59-29.53,6.62-.77.55-1.07,1.48-.84,3.09.16,1.1.08,1.9-.18,2.49-.18.41-.46.7-.83.91-.75.44-1.85.5-3.22.37-35.54-3.44-62.27-26.42-70.18-60.58-.98-4.24-1.22-8.63-1.86-12.94-.46-2.99.34-4.72,3.76-4.12,1.55.27,2.54.09,3.13-.6.12-6.29,1.07-12.37,2.75-18.14l24.12,9.63c-.72,3.18-1.11,6.49-1.11,9.89,0,24.44,19.81,44.26,44.25,44.26,6.14,0,11.98-1.25,17.29-3.52l13.98,21.91Z"/>
                <g>
                  <path class="cls-3" d="M508.62,440.87c-6.73,36.66-27.8,61.25-62.91,73.77-6.69,2.38-13.62,3.64-20.71,4.12-6.67.45-6.66.54-6.49-6.07q.15-5.74,5.94-6.13c37.57-2.55,68.92-32.97,72.45-70.5.3-3.15,1.14-4,4.27-3.86,8.6.36,8.99.29,7.45,8.67Z"/>
                  <path class="cls-3" d="M339.44,431.07q-7.37-.14-6.49-6.67c5.65-41.6,37.55-73.92,79-80,.98-.14,1.97-.22,2.95-.29,8.56-.63,8.41-.63,8.39,7.87,0,3.12-.91,3.97-4.06,4.13-38.34,1.88-70.31,32.13-73.8,70.2-.51,5.61-3.25,5.08-5.99,4.76Z"/>
                  <path class="cls-5" d="M472.57,400.12c-5.64-.04-10.88-2.25-14.78-6.22-3.83-3.91-5.9-9.09-5.82-14.58.16-11.59,9.3-20.67,20.79-20.67h.11c11.58.05,20.63,9.25,20.6,20.94-.03,11.51-9.15,20.53-20.75,20.53h-.16Z"/>
                  <path class="cls-3" d="M490.64,431.69c0,.71-.01,1.42-.04,2.12-.5,16.74-6.87,32.01-17.14,43.81-3.48,4.01-7.42,7.61-11.72,10.74-3.1,2.25-6.39,4.26-9.85,5.98l-13.98-21.91c2.6-1.1,5.07-2.44,7.39-4,.44-.29.86-.59,1.29-.9,0,0,0,0,0,0,.42-.32.84-.63,1.24-.96,10.37-8.09,17.03-20.71,17.03-34.88,0-24.44-19.81-44.25-44.25-44.25-16.96,0-31.7,9.55-39.11,23.56-.35.65-.68,1.3-.99,1.96,0,.01-.01.02-.01.04-1.3,2.79-2.32,5.74-3.03,8.81l-24.12-9.63c1.07-3.73,2.46-7.33,4.12-10.77,11.26-23.42,35.16-39.61,62.87-39.72h.27c9.99,0,19.5,2.09,28.1,5.87-1.77,3.56-2.75,7.58-2.75,11.83,0,14.77,11.98,26.75,26.76,26.75,4.28,0,8.33-1.01,11.92-2.8,3.86,8.67,5.99,18.27,5.99,28.36Z"/>
                </g>
              </g>
              <path class="cls-3" d="M439.63,432.77c0,4.88-1.64,9.36-4.38,12.89-3.64,4.71-9.24,7.71-15.51,7.71-10.98,0-19.88-9.22-19.88-20.6,0-5.11,1.8-9.79,4.78-13.39,2.86-2.89,5.95-5.15,9.43-6.35,1.8-.56,3.71-.86,5.68-.86,1.69,0,3.32.22,4.88.63-.84,1.37-1.32,2.99-1.32,4.71,0,5.02,4.06,9.07,9.07,9.07,2.13,0,4.09-.74,5.63-1.97.06.13.11.27.16.4.94,2.4,1.46,5.01,1.46,7.75Z"/>
            </g>
            <circle class="cls-4" cx="700.88" cy="478.07" r="12.52"/>
            <circle class="cls-4" cx="700.88" cy="383.43" r="12.52"/>
            <path class="cls-5" d="M747.5,401.05v-31.84c0-4.83-7.5-4.83-7.5,0v31.84c0,4.83,7.5,4.83,7.5,0h0Z"/>
            <path class="cls-5" d="M775.56,447.5h64.99c7.24,0,7.25-11.25,0-11.25h-64.99c-7.24,0-7.25,11.25,0,11.25h0Z"/>
            <rect class="cls-5" x="769.97" y="406.52" width="76.18" height="9.96"/>
          </g>
        </g>
      </g>
    </g>
    <g>
      <path class="cls-3" d="M330.15,585.94h30.03l-1.62.45c-1.08.3-2.39,1.3-3.91,3.01-1.52,1.7-2.98,4.56-4.35,8.57-.2.7-.84,2.68-1.92,5.94s-2.44,7.35-4.06,12.26-3.37,10.23-5.24,15.95-3.71,11.41-5.53,17.07c-1.82,5.67-3.49,10.83-5.02,15.5l-3.62,11.06c.59,1.4,1.03,2.51,1.33,3.31,1.97,3.61,3.89,6.37,5.76,8.27s3.84,2.86,5.9,2.86c-3.74,0-7.72-.25-11.95-.75-4.23-.5-8.19-1.73-11.88-3.69-3.69-1.96-6.62-5.19-8.78-9.7-1.28-2.71-2.51-6.39-3.69-11.06-1.18-4.66-2.29-9.65-3.32-14.97-1.03-5.31-1.99-10.33-2.88-15.04-.49-2.21-.96-4.41-1.4-6.62-.44-2.21-.91-4.36-1.4-6.47-.59-2.71-1.25-5.39-1.99-8.05-.74-2.66-1.55-5.24-2.43-7.75-1.97-5.22-4.77-10.18-8.41-14.89-1.08-1.2-2.12-2.21-3.1-3.01-.49-.4-1.13-.88-1.92-1.43s-1.43-.83-1.92-.83c2.85,0,5.71.78,8.56,2.33s5.41,3.29,7.67,5.19,3.84,3.41,4.72,4.51c4.62,5.42,8.34,11.33,11.14,17.75,2.8,6.42,5.16,13.04,7.08,19.86s3.91,13.49,5.98,20.01c.29.9.96,2.98,1.99,6.24,1.03,3.26,2.09,6.49,3.17,9.7.79-2.31,1.52-4.54,2.21-6.69s1.08-3.33,1.18-3.54c.69-2.21,1.7-5.32,3.02-9.33s2.75-8.4,4.28-13.16c1.52-4.76,3.02-9.38,4.5-13.84s2.73-8.3,3.76-11.51c1.03-3.21,1.7-5.27,1.99-6.17,1.38-4.51,1.3-8.37-.22-11.58-1.52-3.21-3.89-5.64-7.08-7.3-3.2-1.65-6.52-2.48-9.96-2.48h3.32Z"/>
      <path class="cls-3" d="M385.27,665.6c1.38,5.67,3.05,10.15,5.02,13.46,1.97,3.31,3.89,5.77,5.76,7.37s3.42,2.63,4.65,3.08l1.84.68h-42.5l1.84-.68c1.23-.45,2.8-1.48,4.72-3.08s3.84-4.06,5.76-7.37c1.92-3.31,3.57-7.8,4.94-13.46,1.38-5.67,2.21-12.86,2.51-21.59,0-1.71.02-3.41.07-5.12s-.07-3.36-.37-4.96c-.69-3.21-2.07-5.82-4.13-7.82-1.28-1.4-2.93-2.58-4.94-3.54s-3.22-1.43-3.62-1.43h28.92c-.29,0-1.3.4-3.02,1.2-1.72.8-2.93,1.45-3.62,1.96-2.36,1.81-4.08,4.06-5.17,6.77-.89,2.01-1.3,4.11-1.25,6.32.05,2.21.07,4.41.07,6.62.3,8.72,1.13,15.92,2.51,21.59Z"/>
      <path class="cls-3" d="M462.45,665c.89,3.06,1.13,6.09.74,9.1-.39,2.71-1.45,5.12-3.17,7.22-1.72,2.11-3.81,3.81-6.27,5.12s-4.87,2.26-7.23,2.86c-3.54.9-7.16,1.23-10.85.98-3.69-.25-7.3-.73-10.85-1.43-1.48-.4-2.95-.73-4.43-.98-1.48-.25-2.95-.33-4.43-.23-1.48.2-2.88.75-4.21,1.66-1.33.9-2.19,2.06-2.58,3.46,0-5.21.02-10.46.07-15.72s.07-10.51.07-15.72c.39,4.81,1.92,9.33,4.57,13.54,2.66,4.21,6.1,7.37,10.33,9.48,4.23,2.11,8.78,3.16,13.65,3.16s9.42-1.1,13.65-3.31c1.77-.9,3.12-2.31,4.06-4.21s.91-3.96-.07-6.17c-.59-1.3-1.99-2.68-4.21-4.14-2.21-1.46-4.82-2.91-7.82-4.36s-6-2.88-9-4.29c-3-1.4-5.63-2.76-7.9-4.06-3.64-2.11-6.71-4.79-9.22-8.05-2.51-3.26-3.96-7.04-4.35-11.36-.39-4.11.29-7.37,2.07-9.78,1.77-2.41,4.13-4.14,7.08-5.19,2.95-1.05,6.2-1.53,9.74-1.43,3.54.1,6.89.55,10.03,1.35,2.26.6,4.8,1.05,7.6,1.35s5.19-.2,7.16-1.5c.69-.4,1.28-.95,1.77-1.66.49-.7.74-1.35.74-1.96v24.37-.15c-.2-3.61-1.3-6.67-3.32-9.18-2.02-2.51-4.53-4.51-7.53-6.02-3-1.5-6.15-2.58-9.44-3.23-3.3-.65-6.37-.88-9.22-.68-1.87.2-3.81.63-5.83,1.28-2.02.65-3.66,1.71-4.94,3.16-1.28,1.45-1.77,3.43-1.48,5.94.3,2.61,1.21,4.59,2.73,5.94,1.52,1.35,3.37,2.33,5.53,2.93,2.16.6,4.28,1.15,6.35,1.66,4.53,1,9.2,2.46,14.02,4.36,4.82,1.91,8.85,4.61,12.1,8.12,1.97,2.11,3.39,4.69,4.28,7.75Z"/>
      <path class="cls-3" d="M494.77,665.6c1.38,5.67,3.05,10.15,5.02,13.46,1.97,3.31,3.89,5.77,5.76,7.37s3.42,2.63,4.65,3.08l1.84.68h-42.5l1.84-.68c1.23-.45,2.8-1.48,4.72-3.08s3.84-4.06,5.76-7.37c1.92-3.31,3.57-7.8,4.94-13.46,1.38-5.67,2.21-12.86,2.51-21.59,0-1.71.02-3.41.07-5.12s-.07-3.36-.37-4.96c-.69-3.21-2.07-5.82-4.13-7.82-1.28-1.4-2.93-2.58-4.94-3.54s-3.22-1.43-3.62-1.43h28.92c-.29,0-1.3.4-3.02,1.2-1.72.8-2.93,1.45-3.62,1.96-2.36,1.81-4.08,4.06-5.17,6.77-.89,2.01-1.3,4.11-1.25,6.32.05,2.21.07,4.41.07,6.62.3,8.72,1.13,15.92,2.51,21.59ZM487.68,607.45c-1.57-2.01-3.27-3.49-5.09-4.44-1.82-.95-3.39-1.55-4.72-1.81l-1.99-.38,1.99-.38c1.33-.25,2.9-.85,4.72-1.81,1.82-.95,3.52-2.43,5.09-4.44,1.57-2.01,2.61-4.76,3.1-8.27.49,3.51,1.55,6.27,3.17,8.27,1.62,2.01,3.32,3.49,5.09,4.44,1.77.95,3.32,1.55,4.65,1.81l1.99.38-1.99.38c-1.33.25-2.88.85-4.65,1.81-1.77.95-3.47,2.43-5.09,4.44-1.62,2.01-2.68,4.76-3.17,8.27-.49-3.51-1.52-6.27-3.1-8.27ZM378.18,607.45c-1.57-2.01-3.27-3.49-5.09-4.44-1.82-.95-3.39-1.55-4.72-1.81l-1.99-.38,1.99-.38c1.33-.25,2.9-.85,4.72-1.81,1.82-.95,3.52-2.43,5.09-4.44,1.57-2.01,2.61-4.76,3.1-8.27.49,3.51,1.55,6.27,3.17,8.27,1.62,2.01,3.32,3.49,5.09,4.44,1.77.95,3.32,1.55,4.65,1.81l1.99.38-1.99.38c-1.33.25-2.88.85-4.65,1.81-1.77.95-3.47,2.43-5.09,4.44-1.62,2.01-2.68,4.76-3.17,8.27-.49-3.51-1.52-6.27-3.1-8.27Z"/>
      <path class="cls-3" d="M561.39,625.28c4.38,3.16,7.87,7.4,10.48,12.71,2.61,5.32,3.91,11.23,3.91,17.75s-1.3,12.31-3.91,17.68c-2.61,5.37-6.1,9.63-10.48,12.79s-9.22,4.74-14.54,4.74-10.16-1.58-14.54-4.74-7.87-7.42-10.48-12.79c-2.61-5.37-3.91-11.26-3.91-17.68s1.3-12.44,3.91-17.75,6.1-9.55,10.48-12.71,9.22-4.74,14.54-4.74,10.16,1.58,14.54,4.74ZM558.96,672.52c3.64-2.36,6.54-5.52,8.71-9.48,2.16-3.96,3.25-8.35,3.25-13.16s-1.08-9.2-3.25-13.16c-2.16-3.96-5.07-7.12-8.71-9.48-3.64-2.36-7.67-3.54-12.1-3.54s-8.46,1.18-12.1,3.54c-3.64,2.36-6.54,5.52-8.71,9.48-2.16,3.96-3.25,8.35-3.25,13.16s1.08,9.2,3.25,13.16c2.16,3.96,5.07,7.12,8.71,9.48,3.64,2.36,7.67,3.54,12.1,3.54s8.46-1.18,12.1-3.54Z"/>
      <path class="cls-3" d="M643,665.82c.74,5.62,1.7,10.1,2.88,13.46,1.18,3.36,2.41,5.87,3.69,7.52,1.28,1.65,2.51,2.78,3.69,3.38h-34.38c1.97,0,4.11-.75,6.42-2.26,2.31-1.5,4.53-3.99,6.64-7.45,2.11-3.46,3.81-8.15,5.09-14.07,1.28-5.92,1.92-13.24,1.92-21.96v-2.86c0-3.21-.76-6.14-2.29-8.8-1.52-2.66-3.59-4.76-6.2-6.32-2.61-1.55-5.48-2.33-8.63-2.33h-6.49c-4.43,0-8.39,1.33-11.88,3.99-3.49,2.66-5.24,6.54-5.24,11.66,0,9.93.69,18.15,2.07,24.67,1.38,6.52,3.15,11.66,5.31,15.42,2.17,3.76,4.4,6.42,6.71,7.97s4.45,2.33,6.42,2.33h-36.45l1.25-.68c.84-.45,1.89-1.53,3.17-3.23,1.28-1.71,2.56-4.46,3.84-8.27,1.28-3.81,2.36-9.08,3.25-15.8.88-6.72,1.38-15.29,1.48-25.72-.1-4.11-.81-7.27-2.14-9.48-1.33-2.21-2.63-3.74-3.91-4.59l-1.92-1.28h34.53c3.74,0,7.13.93,10.18,2.78s5.46,4.34,7.23,7.45c1.77,3.11,2.66,6.52,2.66,10.23v2.86c0,8.62.37,15.75,1.11,21.36Z"/>
      <path class="cls-3" d="M753.75,690.19c-2.16,0-4.75-.1-7.75-.3-3-.2-6.08-.75-9.22-1.66-3.15-.9-6.05-2.31-8.71-4.21s-4.77-4.56-6.35-7.97c-1.18-2.71-2.31-6.39-3.39-11.06-1.08-4.66-2.09-9.68-3.03-15.04-.93-5.37-1.84-10.4-2.73-15.12-.2-1.6-.47-3.31-.81-5.12-.34-1.8-.66-3.66-.96-5.57h-21.1c-.79,2.41-1.55,4.66-2.29,6.77-.74,2.11-1.35,3.91-1.84,5.42-2.95,8.32-4.67,15.45-5.17,21.36s-.17,10.86.96,14.82c1.13,3.96,2.71,7.12,4.72,9.48,2.02,2.36,4.06,4.14,6.12,5.34,2.07,1.2,3.84,1.98,5.31,2.33l2.21.53h-45.01l1.18-.75c.79-.5,1.92-1.63,3.39-3.38s3.32-4.51,5.53-8.27c2.21-3.76,4.75-8.88,7.6-15.34,2.85-6.47,6-14.72,9.44-24.75.98-2.61,2.21-6.07,3.69-10.38s3-8.8,4.57-13.46c1.57-4.66,3.05-9.03,4.43-13.09,1.38-4.06,2.46-7.2,3.25-9.4-2.17-2.61-4.6-4.56-7.3-5.87-2.71-1.3-6.57-2.41-11.58-3.31,4.03,0,7.62.33,10.77.98,3.15.65,6.15,1.78,9,3.38,2.85,1.6,5.85,3.91,9,6.92,3.94,3.81,7.28,8.2,10.03,13.16,2.75,4.96,5.12,10.23,7.08,15.8s3.69,11.21,5.17,16.92c1.48,5.72,3,11.18,4.57,16.4.2.7.59,2.08,1.18,4.14.59,2.06,1.28,4.36,2.07,6.92s1.6,4.99,2.44,7.3c.84,2.31,1.55,4.06,2.14,5.27,3.54,7.22,7.33,10.83,11.36,10.83ZM710.22,621.14c-.89-4.51-1.99-8.98-3.32-13.39-1.33-4.41-2.98-8.07-4.94-10.98-.69-1-1.33-1.91-1.92-2.71-1.08,3.01-2.48,7.05-4.21,12.11s-3.42,10.05-5.09,14.97h19.48Z"/>
      <path class="cls-3" d="M779.58,665.6c1.38,5.67,3.05,10.15,5.02,13.46,1.97,3.31,3.89,5.77,5.75,7.37s3.42,2.63,4.65,3.08l1.84.68h-42.5l1.84-.68c1.23-.45,2.8-1.48,4.72-3.08,1.92-1.6,3.84-4.06,5.75-7.37,1.92-3.31,3.57-7.8,4.94-13.46,1.38-5.67,2.21-12.86,2.51-21.59,0-1.71.03-3.41.07-5.12s-.07-3.36-.37-4.96c-.69-3.21-2.07-5.82-4.13-7.82-1.28-1.4-2.93-2.58-4.94-3.54s-3.22-1.43-3.62-1.43h28.92c-.29,0-1.3.4-3.03,1.2-1.72.8-2.93,1.45-3.62,1.96-2.36,1.81-4.08,4.06-5.17,6.77-.88,2.01-1.3,4.11-1.25,6.32.05,2.21.07,4.41.07,6.62.29,8.72,1.13,15.92,2.51,21.59ZM772.49,607.45c-1.57-2.01-3.27-3.49-5.09-4.44-1.82-.95-3.39-1.55-4.72-1.81l-1.99-.38,1.99-.38c1.33-.25,2.9-.85,4.72-1.81,1.82-.95,3.52-2.43,5.09-4.44s2.61-4.76,3.1-8.27c.49,3.51,1.55,6.27,3.17,8.27,1.62,2.01,3.32,3.49,5.09,4.44,1.77.95,3.32,1.55,4.65,1.81l1.99.38-1.99.38c-1.33.25-2.88.85-4.65,1.81-1.77.95-3.47,2.43-5.09,4.44-1.62,2.01-2.68,4.76-3.17,8.27-.49-3.51-1.53-6.27-3.1-8.27Z"/>
      <path class="cls-3" d="M858.82,660.41c.98,6.92,2.21,12.39,3.69,16.4s2.93,6.97,4.35,8.88c1.43,1.91,2.63,3.13,3.62,3.69l1.48.83h-41.91c-5.31,0-10.01-1.55-14.09-4.66-4.08-3.11-7.28-7.27-9.59-12.49-2.31-5.22-3.47-11.03-3.47-17.45s1.16-12.08,3.47-17.3c2.31-5.21,5.51-9.38,9.59-12.49,4.08-3.11,8.78-4.66,14.09-4.66h24.35v-19.56c0-3.41-1.06-6.29-3.17-8.65-2.12-2.36-4.62-4.11-7.53-5.27-2.9-1.15-5.39-1.73-7.45-1.73h29.07l-1.99,1.28c-1.33.85-2.66,2.41-3.98,4.66-1.33,2.26-1.99,5.49-1.99,9.7v32.5c0,10.63.49,19.41,1.48,26.33ZM842,672.29c3.44-2.31,6.12-5.42,8.04-9.33,1.92-3.91,2.88-8.27,2.88-13.09s-.96-9.03-2.88-12.94c-1.92-3.91-4.6-7.04-8.04-9.4-3.44-2.36-7.43-3.54-11.95-3.54s-8.36,1.18-11.81,3.54c-3.44,2.36-6.12,5.49-8.04,9.4-1.92,3.91-2.88,8.22-2.88,12.94s.96,9.18,2.88,13.09c1.92,3.91,4.6,7.02,8.04,9.33s7.38,3.46,11.81,3.46,8.51-1.15,11.95-3.46Z"/>
    </g>
    <polygon class="cls-5" points="356.77 741.05 276.23 736.05 356.77 731.05 356.77 741.05 356.77 741.05"/>
    <polygon class="cls-5" points="789.85 731.05 870.39 736.05 789.85 741.05 789.85 731.05 789.85 731.05"/>
    <text class="cls-2" transform="translate(369.66 746.1) scale(.88 1)"><tspan x="0" y="0">Emp</tspan><tspan class="cls-6" x="62.11" y="0">ow</tspan><tspan x="101.95" y="0">ering Sight, Enhancing Li</tspan><tspan class="cls-7" x="434.52" y="0">f</tspan><tspan x="444.22" y="0">e</tspan></text>
  </g>
</svg>